<svg xmlns="http://www.w3.org/2000/svg" width="150" height="180" viewBox="0 0 150 180"><defs><style>.a{fill:#001e36;}.b{fill:#31a8ff;}.c,.d{stroke:none;}.d{fill:#cecdcd;}</style></defs><g transform="translate(-200 -139)"><g class="a" transform="translate(200 139)"><path class="c" d="M 131.927734375 179.5 L 18.07229614257812 179.5 C 15.70636367797852 179.5 13.41090869903564 178.9870758056641 11.24970436096191 177.9754486083984 C 9.158318519592285 176.9965057373047 7.279090881347656 175.593994140625 5.664227485656738 173.8069152832031 C 4.04611349105835 172.0161743164062 2.775340795516968 169.9300231933594 1.887272715568542 167.6064147949219 C 0.9667500257492065 165.1979064941406 0.5 162.6387481689453 0.5 160 L 0.5 20 C 0.5 17.36127281188965 0.9667500257492065 14.80209064483643 1.887272715568542 12.39361381530762 C 2.775340795516968 10.06997680664062 4.04611349105835 7.983818054199219 5.664227485656738 6.193090915679932 C 7.279090881347656 4.406000137329102 9.158318519592285 3.003499984741211 11.24970436096191 2.024545431137085 C 13.41090869903564 1.012931823730469 15.70636367797852 0.5 18.07229614257812 0.5 L 131.927734375 0.5 C 134.2936553955078 0.5 136.589111328125 1.012931823730469 138.7502899169922 2.024545431137085 C 140.8417053222656 3.003499984741211 142.7209320068359 4.406000137329102 144.3357696533203 6.193090915679932 C 145.9539031982422 7.983818054199219 147.2246551513672 10.06997680664062 148.1127471923828 12.39361381530762 C 149.0332489013672 14.80209064483643 149.5 17.36127281188965 149.5 20 L 149.5 160 C 149.5 162.6387481689453 149.0332489013672 165.1979064941406 148.1127471923828 167.6064147949219 C 147.2246551513672 169.9300231933594 145.9539031982422 172.0161743164062 144.3357696533203 173.8069152832031 C 142.7209320068359 175.5940246582031 140.8417053222656 176.9965057373047 138.7502899169922 177.9754486083984 C 136.589111328125 178.9870758056641 134.2936553955078 179.5 131.927734375 179.5 Z"/><path class="d" d="M 18.07229614257812 1 C 13.53143310546875 1 9.256561279296875 2.96331787109375 6.035202026367188 6.528289794921875 C 4.45867919921875 8.272994995117188 3.220245361328125 10.30642700195312 2.354324340820312 12.57211303710938 C 1.455657958984375 14.92338562011719 1 17.42250061035156 1 20 L 1 160 C 1 162.5774993896484 1.455657958984375 165.0766143798828 2.354324340820312 167.4278869628906 C 3.220245361328125 169.6935729980469 4.45867919921875 171.7270050048828 6.035202026367188 173.4717102050781 C 9.256561279296875 177.0366821289062 13.53143310546875 179 18.07229614257812 179 L 131.927734375 179 C 136.4685974121094 179 140.7434387207031 177.0366821289062 143.9647979736328 173.4717102050781 C 145.5413208007812 171.7270050048828 146.7797546386719 169.6935729980469 147.6456756591797 167.4278869628906 C 148.5443420410156 165.0766143798828 149 162.5774993896484 149 160 L 149 20 C 149 17.42250061035156 148.5443420410156 14.92338562011719 147.6456756591797 12.57211303710938 C 146.7797546386719 10.30642700195312 145.5413208007812 8.272994995117188 143.9647979736328 6.528289794921875 C 140.7434387207031 2.96331787109375 136.4685974121094 1 131.927734375 1 L 18.07229614257812 1 M 18.07229614257812 0 L 131.927734375 0 C 141.9087677001953 0 150 8.954299926757812 150 20 L 150 160 C 150 171.0457000732422 141.9087677001953 180 131.927734375 180 L 18.07229614257812 180 C 8.091232299804688 180 0 171.0457000732422 0 160 L 0 20 C 0 8.954299926757812 8.091232299804688 0 18.07229614257812 0 Z"/></g><g transform="translate(250 210)"><path class="b" d="M9.271,65.275V52.692c.671.065,1.463.1,2.326.1,5.265,0,9.521-1.389,12.311-4.018a12.339,12.339,0,0,0,3.545-9.108,11.226,11.226,0,0,0-4.123-8.918c-2.575-2.06-6.359-3.061-11.569-3.061a69.624,69.624,0,0,0-11.335.772A.512.512,0,0,0,0,28.964V65.275a.513.513,0,0,0,.513.513H8.758A.513.513,0,0,0,9.271,65.275Zm0-20.025V35.216a15.835,15.835,0,0,1,2.927-.224c3.8,0,5.985,1.783,5.985,4.893,0,3.44-2.482,5.494-6.64,5.494A14.889,14.889,0,0,1,9.271,45.249Z" transform="translate(0 -27.687)"/><path class="b" d="M153.943,86.359c-3.4-1.189-3.97-1.755-3.97-2.574,0-1.454,1.663-1.672,2.654-1.672a12.6,12.6,0,0,1,5.543,1.466.512.512,0,0,0,.742-.322l1.474-5.733a.513.513,0,0,0-.267-.586,18.421,18.421,0,0,0-7.765-1.583c-6.7,0-11.379,3.8-11.379,9.24-.045,2.653,1.3,6.284,7.94,8.521,3.228,1.076,3.581,1.635,3.581,2.572,0,.427,0,1.726-3.036,1.726a15.692,15.692,0,0,1-6.887-1.946.513.513,0,0,0-.764.315l-1.474,5.952a.513.513,0,0,0,.254.574,19.385,19.385,0,0,0,8.871,1.918c7.456,0,12.088-3.5,12.088-9.147C161.49,90.838,159.143,88.148,153.943,86.359Z" transform="translate(-111.549 -65.581)"/></g></g></svg>